<svg xmlns="http://www.w3.org/2000/svg" viewBox="0 0 128 128"><defs><linearGradient id="bg" x1="0%" x2="100%" y1="0%" y2="100%"><stop offset="0%" style="stop-color:#238636"/><stop offset="100%" style="stop-color:#0969da"/></linearGradient></defs><rect width="128" height="128" fill="url(#bg)" rx="28"/><g transform="translate(20, 22)"><rect width="16" height="16" x="0" y="0" fill="rgba(255,255,255,0.25)" rx="3"/><rect width="16" height="16" x="20" y="0" fill="rgba(255,255,255,0.45)" rx="3"/><rect width="16" height="16" x="40" y="0" fill="rgba(255,255,255,0.7)" rx="3"/><rect width="16" height="16" x="0" y="20" fill="rgba(255,255,255,0.45)" rx="3"/><rect width="16" height="16" x="20" y="20" fill="rgba(255,255,255,0.9)" rx="3"/><rect width="16" height="16" x="40" y="20" fill="rgba(255,255,255,0.55)" rx="3"/><rect width="16" height="16" x="0" y="40" fill="rgba(255,255,255,0.7)" rx="3"/><rect width="16" height="16" x="40" y="40" fill="rgba(255,255,255,0.35)" rx="3"/><rect width="16" height="16" x="20" y="40" fill="rgba(255,255,255,0.9)" rx="3"/></g><g fill="none" stroke="#fff" stroke-linecap="round" stroke-width="4.5" transform="translate(52, 48)"><circle cx="24" cy="24" r="22" fill="rgba(255,255,255,0.12)"/><line x1="40" x2="56" y1="40" y2="56"/></g><g fill="#fff" transform="translate(62, 56)"><rect width="6" height="12" x="0" y="16" opacity=".8" rx="1.5"/><rect width="6" height="20" x="9" y="8" rx="1.5"/><rect width="6" height="16" x="18" y="12" opacity=".8" rx="1.5"/></g></svg>